<svg id="Layer_1" data-name="Layer 1" xmlns="http://www.w3.org/2000/svg" viewBox="0 0 700 700">
  <defs>
    <style>
      .cls-1 {
        fill: #38598a;
      }
    </style>
  </defs>
  <path class="cls-1" d="M542.89,597.33c-29.34,0-44.74-6-58.33-11.22-11.17-4.32-19.24-7.44-38.12-7.44s-26.94,3.12-38.11,7.44c-13.59,5.26-29,11.22-58.33,11.22s-44.74-6-58.34-11.22c-11.16-4.32-19.23-7.45-38.11-7.45s-26.94,3.12-38.11,7.45c-13.58,5.26-29,11.22-58.33,11.22s-44.74-6-58.33-11.22c-11.16-4.32-19.23-7.44-38.11-7.44v18.66c15.39,0,21.07,2.2,31.37,6.19,14.37,5.56,32.24,12.48,65.07,12.48s50.71-6.92,65.07-12.48c10.31-4,16-6.19,31.38-6.19s21.06,2.2,31.37,6.19C299.3,609.08,317.17,616,350,616s50.71-6.92,65.07-12.48c10.31-4,16-6.19,31.38-6.19s21.07,2.2,31.37,6.19c14.36,5.56,32.24,12.48,65.07,12.48s50.71-6.92,65.07-12.48c10.31-4,16-6.19,31.38-6.19V578.66c-18.89,0-27,3.13-38.12,7.45-13.59,5.26-29,11.22-58.33,11.22Z"/>
  <path class="cls-1" d="M574.26,516.48c-10.3,4-16,6.19-31.38,6.19s-21.07-2.2-31.38-6.19C497.14,510.92,479.26,504,446.44,504s-50.71,6.92-65.07,12.48c-10.31,4-16,6.19-31.38,6.19s-21.07-2.2-31.37-6.19C304.26,510.92,286.38,504,253.55,504s-50.71,6.92-65.07,12.48c-10.31,4-16,6.19-31.37,6.19s-21.07-2.2-31.38-6.19C111.37,510.92,93.5,504,60.67,504v18.67c29.34,0,44.74,6,58.33,11.22,11.16,4.32,19.23,7.45,38.11,7.45s26.95-3.12,38.12-7.45c13.58-5.26,29-11.22,58.32-11.22s44.74,6,58.33,11.22c11.16,4.32,19.23,7.45,38.11,7.45s26.95-3.12,38.11-7.45c13.59-5.26,29-11.22,58.34-11.22s44.74,6,58.33,11.22c11.17,4.32,19.23,7.44,38.11,7.44s27-3.12,38.12-7.44c13.59-5.26,29-11.22,58.33-11.22V504c-32.83,0-50.7,6.92-65.07,12.48Z"/>
  <path class="cls-1" d="M542.89,560c-22.37,0-33.29-4.23-44.85-8.7-12.66-4.9-25.74-10-51.6-10s-38.94,5.07-51.59,10C383.29,555.77,372.37,560,350,560s-33.29-4.23-44.86-8.71c-12.65-4.89-25.73-10-51.59-10s-38.93,5.07-51.59,10c-11.56,4.48-22.48,8.71-44.85,8.71s-33.29-4.23-44.85-8.71c-12.65-4.89-25.74-10-51.59-10V560c22.37,0,33.29,4.23,44.85,8.7,12.65,4.9,25.74,10,51.59,10s38.94-5.07,51.59-10c11.56-4.47,22.49-8.7,44.85-8.7s33.29,4.23,44.86,8.7c12.65,4.9,25.73,10,51.59,10s38.93-5.07,51.59-10c11.56-4.47,22.48-8.7,44.85-8.7s33.29,4.23,44.86,8.7c12.65,4.9,25.73,10,51.59,10s38.94-5.07,51.59-10c11.57-4.47,22.49-8.7,44.86-8.7V541.33c-25.86,0-38.94,5.07-51.6,10-11.56,4.48-22.48,8.71-44.85,8.71Z"/>
  <path class="cls-1" d="M340.67,410.67v-3L219.33,298.12,98,407.64v3h24.42l96.91-87.23,96.92,87.23Z"/>
  <path class="cls-1" d="M116,410.67H325.67L219.33,318.29Z"/>
  <path class="cls-1" d="M568.23,336H430.43l-28,56h193.8Z"/>
  <path class="cls-1" d="M126,149.33H228.67V91.91l36.78,5.25A28,28,0,0,0,238,74.67a29,29,0,0,0-3.63.24l-6.22.81-3.09-5.47a28,28,0,0,0-48.78,0l-3.09,5.47L167,74.91a29,29,0,0,0-3.64-.24,28,28,0,0,0-28,28V112H126a18.67,18.67,0,1,0,0,37.33Z"/>
  <path class="cls-1" d="M256.67,140.72H350v45.95H256.67Z"/>
  <path class="cls-1" d="M279,486.79a165.26,165.26,0,0,1,24.32,4.74v-62.2h-168v70.84c6.84,2.61,10.54,3.66,19.35,3.81A65.31,65.31,0,0,1,279,486.79Z"/>
  <path class="cls-1" d="M181.74,499.07A198.14,198.14,0,0,1,210,490V467.61a46.8,46.8,0,0,0-35.9,34.27c2.23-.72,4.62-1.64,7.64-2.81Z"/>
  <path class="cls-1" d="M228.67,486.72a212.2,212.2,0,0,1,24.89-1.39l3.1,0a46.76,46.76,0,0,0-28-17.75Z"/>
  <path class="cls-1" d="M247.33,186.67H266V149.34h74.67v37.33h18.66V129.43l-112-16Z"/>
  <path class="cls-1" d="M471.33,317.33v-112H228.67v76.06L359.34,399.33v30H322v68.44l3.36,1.3c9.52,3.68,12.73,4.93,24.64,4.93s15.11-1.25,24.63-4.93a219.3,219.3,0,0,1,22-7.55V410.67H372.24l46.67-93.34ZM294,270.67H256.67V233.34H294Zm74.67,74.66H331.34V308h37.33Zm0-74.66H331.34V233.34h37.33ZM406,233.33h37.33v37.33H406Z"/>
  <path class="cls-1" d="M446.44,485.33c36.32,0,56.83,7.94,71.81,13.74,9.52,3.69,12.73,4.93,24.64,4.93s15.12-1.24,24.64-4.93c4.64-1.79,9.81-3.8,15.81-5.7v-82.7h-168v76.89a205,205,0,0,1,31.1-2.23ZM518,438.67h37.33V476H518Zm-74.67,0h37.34V476H443.33Z"/>
  <path class="cls-1" d="M471.33,149.33H602a18.67,18.67,0,0,0,5.64-36.46l-5.14-1.63L601.34,106a28,28,0,0,0-36.62-20.39l-8.58,3-3.23-8.51a37.34,37.34,0,0,0-71.49,20.75l2.36,11.58-12-.4h-.43a18.67,18.67,0,1,0,0,37.33Z"/>
  <path class="cls-1" d="M508.67,261.33h18.67V280H508.67Z"/>
  <path class="cls-1" d="M508.67,186.67h18.67v18.67H508.67Z"/>
  <path class="cls-1" d="M508.67,224h18.67v18.67H508.67Z"/>
  <path class="cls-1" d="M546,205.33h18.67V224H546Z"/>
  <path class="cls-1" d="M546,242.67h18.67v18.67H546Z"/>
  <path class="cls-1" d="M546,280h18.67v18.67H546Z"/>
  <path class="cls-1" d="M583.33,186.67H602v18.67H583.33Z"/>
  <path class="cls-1" d="M583.33,261.33H602V280H583.33Z"/>
  <path class="cls-1" d="M583.33,224H602v18.67H583.33Z"/>
  <path class="cls-1" d="M72.5,263.73l9.07-16.31,16.32,9.06L88.82,272.8Z"/>
  <path class="cls-1" d="M90.64,231.09l9.06-16.31L116,223.84,107,240.16Z"/>
  <path class="cls-1" d="M108.77,198.46l9.07-16.31,16.31,9.06-9.06,16.32Z"/>
  <path class="cls-1" d="M81.84,319.73l9.07-16.31,16.31,9.06L98.16,328.8Z"/>
  <path class="cls-1" d="M118.1,254.46l9.07-16.31,16.31,9.06-9.06,16.32Z"/>
  <path class="cls-1" d="M100,287.1,109,270.79l16.31,9.06-9.06,16.32Z"/>
  <path class="cls-1" d="M156,259.1,165,242.79l16.31,9.06-9.06,16.32Z"/>
  <path class="cls-1" d="M174.11,226.46l9.07-16.31,16.31,9.06-9.06,16.32Z"/>
  <path class="cls-1" d="M137.84,291.73l9.07-16.31,16.31,9.06-9.06,16.32Z"/>
</svg>
